<svg width="2561" height="195" viewBox="0 0 2561 195" fill="none" xmlns="http://www.w3.org/2000/svg">
<path d="M2560.5 0H0V184L181 170.5C683 146.5 810 150.5 954 149.5C1069.2 148.7 1491.33 170.5 1688 181.5C1761 185.833 1945.2 194.5 2098 194.5C2250.8 194.5 2470 177.5 2560.5 169V0Z" fill="#270D34"/>
<path d="M713 145.611C578.6 142.811 181.667 158.778 0 167.111V181.611L332 162.111C353.167 160.444 440.2 155.911 619 151.111C842.5 145.111 1133 153.111 1162 153.111C1191 153.111 1734.5 182.611 1995.5 193.111C2204.3 201.511 2458.5 179.944 2559.5 168.111L2559 166.111H2556.5C2517.83 168.778 2393.9 175.811 2207.5 182.611C1974.5 191.111 1488 157.611 1232 150.111C1027.2 144.111 800.667 144.611 713 145.611Z" fill="#982881"/>
</svg>
